<?xml version="1.0" standalone="no"?>
<!DOCTYPE svg PUBLIC "-//W3C//DTD SVG 20010904//EN"
 "http://www.w3.org/TR/2001/REC-SVG-20010904/DTD/svg10.dtd">
<svg version="1.0" xmlns="http://www.w3.org/2000/svg"
 width="127.000000pt" height="127.000000pt" viewBox="0 0 127.000000 127.000000"
 preserveAspectRatio="xMidYMid meet">
<metadata>
Created by potrace 1.11, written by Peter Selinger 2001-2013
</metadata>
<g transform="translate(0.000000,127.000000) scale(0.100000,-0.100000)"
fill="#000000" stroke="none">
<path d="M561 1158 c-16 -5 -21 -15 -19 -30 3 -20 10 -23 61 -26 42 -2 57 -7
57 -18 0 -8 11 -19 24 -23 13 -5 26 -17 30 -26 9 -25 50 -15 54 13 3 17 -2 25
-17 29 -11 3 -23 14 -26 24 -4 10 -12 19 -20 19 -8 0 -17 9 -20 20 -3 11 -12
20 -18 21 -58 5 -87 4 -106 -3z"/>
<path d="M944 1138 c-12 -13 -35 -34 -53 -48 -36 -29 -41 -60 -11 -60 25 0 80
39 80 56 0 9 19 14 58 16 53 3 57 5 57 28 0 23 -4 25 -55 28 -47 2 -59 -1 -76
-20z"/>
<path d="M99 1013 c37 -4 42 -7 38 -24 -4 -16 -1 -19 16 -17 18 2 22 -2 20
-19 -2 -13 2 -23 7 -23 20 0 9 36 -19 63 -23 21 -38 27 -68 25 l-38 -1 44 -4z"/>
<path d="M354 986 c-8 -21 3 -36 27 -36 15 0 20 6 17 22 -4 27 -35 37 -44 14z"/>
<path d="M677 984 c-12 -13 -8 -51 8 -64 21 -18 47 5 43 39 -3 26 -35 41 -51
25z"/>
<path d="M962 978 c-16 -16 -15 -43 1 -56 20 -17 39 2 35 33 -3 32 -18 41 -36
23z"/>
<path d="M474 946 c-8 -21 3 -36 27 -36 15 0 20 6 17 22 -4 27 -35 37 -44 14z"/>
<path d="M0 795 c0 -143 8 -188 25 -135 3 11 13 20 21 20 8 0 14 7 14 15 0 8
-6 15 -14 15 -22 0 -26 23 -26 136 0 63 -4 104 -10 104 -6 0 -10 -58 -10 -155z"/>
<path d="M361 911 c-19 -12 -6 -41 19 -41 16 0 21 5 18 22 -3 25 -17 32 -37
19z"/>
<path d="M274 866 c-8 -21 3 -36 27 -36 15 0 20 6 17 22 -4 27 -35 37 -44 14z"/>
<path d="M554 865 c-8 -19 3 -35 25 -35 27 0 33 12 14 32 -20 22 -32 23 -39 3z"/>
<path d="M202 838 c-8 -8 -12 -47 -12 -109 0 -102 -6 -117 -44 -110 -11 1 -16
-2 -12 -8 4 -6 14 -11 22 -11 8 0 14 -4 14 -9 0 -4 13 -22 30 -39 17 -18 30
-40 30 -51 0 -29 19 -37 91 -40 59 -2 68 0 82 19 15 21 23 22 118 21 95 -2
104 0 119 19 14 19 27 22 96 22 43 1 85 5 92 11 7 5 12 32 12 62 0 30 -5 57
-12 63 -8 6 -95 11 -212 11 -186 2 -201 4 -214 22 -7 10 -24 19 -38 19 -24 0
-124 89 -124 110 0 14 -24 12 -38 -2z"/>
<path d="M692 814 c-39 -40 -39 -68 0 -72 19 -2 28 2 33 17 5 18 15 21 66 21
46 0 63 -4 80 -21 16 -16 23 -18 35 -8 21 17 17 33 -15 68 -27 29 -34 31 -98
31 -65 0 -70 -2 -101 -36z"/>
<path d="M434 786 c-8 -21 3 -36 27 -36 15 0 20 6 17 22 -4 27 -35 37 -44 14z"/>
<path d="M42 578 c3 -7 13 -15 24 -17 16 -3 17 -1 5 13 -16 19 -34 21 -29 4z"/>
<path d="M748 471 c-8 -13 -23 -21 -40 -21 -17 0 -31 -8 -38 -20 -9 -17 -21
-20 -80 -20 -59 0 -71 -3 -80 -20 -8 -16 -21 -20 -60 -20 -39 0 -52 -4 -60
-19 -8 -15 -23 -21 -63 -23 l-52 -3 -3 -57 c-3 -58 -3 -58 47 -108 55 -55 83
-62 124 -30 14 11 35 20 46 20 12 0 38 17 58 40 34 36 40 39 74 34 32 -5 41
-2 60 20 15 17 29 24 40 21 12 -4 26 3 40 20 15 16 29 23 40 20 12 -4 26 3 40
19 17 20 28 23 55 19 38 -6 64 9 64 37 0 20 -19 30 -56 30 -21 0 -24 5 -24 34
0 38 -6 41 -72 45 -38 2 -49 -1 -60 -18z"/>
<path d="M1183 385 c-35 -36 -68 -65 -73 -65 -6 0 -19 11 -31 24 -27 32 -59
24 -59 -14 0 -22 -25 -52 -121 -149 -137 -137 -141 -151 -43 -151 43 0 55 4
64 20 7 13 21 20 40 20 19 0 33 7 40 20 6 11 21 20 34 20 33 0 206 174 206
207 0 13 7 26 15 29 19 8 22 104 3 104 -7 -1 -41 -30 -75 -65z"/>
</g>
</svg>
